<?xml version="1.0" encoding="UTF-8" standalone="no"?>
<svg id="svg4271" xmlns:rdf="http://www.w3.org/1999/02/22-rdf-syntax-ns#" xmlns="http://www.w3.org/2000/svg" height="698.32" viewBox="0 0 698.32031 698.32031" width="698.32" version="1.1" xmlns:cc="http://creativecommons.org/ns#" xmlns:dc="http://purl.org/dc/elements/1.1/">
<path id="path4283" style="color-rendering:auto;text-decoration-color:#000000;color:#000000;isolation:auto;mix-blend-mode:normal;shape-rendering:auto;solid-color:#000000;block-progression:tb;text-decoration-line:none;text-decoration-style:solid;image-rendering:auto;white-space:normal;text-indent:0;text-transform:none" d="m349.16 0c-192.72 0-349.16 156.44-349.16 349.16s156.44 349.16 349.16 349.16 349.16-156.44 349.16-349.16-156.44-349.16-349.16-349.16zm0 20c181.91 0 329.16 147.25 329.16 329.16s-147.25 329.16-329.16 329.16-329.16-147.25-329.16-329.16 147.25-329.16 329.16-329.16zm-0.0488 11.969c-175.03 0-317.14 142.11-317.14 317.14s142.11 317.14 317.14 317.14 317.14-142.11 317.14-317.14-142.11-317.14-317.14-317.14zm79.484 38.102c3.5482 0.22894 6.7164 5.8164 12.559 17.512 5.1095 10.228 15.699 26.295 23.531 35.703 39.477 47.417 28.248 136.98-17.174 136.98-2.8506 0-11.663 3.3057-19.582 7.3457-15.618 7.9679-15.536 7.5126 3.4551-19.051 9.746-13.632 13.932-16.803 21.037-15.939 12.921 1.5696 17.912-8.0973 10.232-19.818-9.1303-13.935-13.908-11.414-27.287 14.402-13.428 25.911-21.094 32.154-21.094 17.182 0-11.892 4.9912-21.373 20.207-38.387 12.636-14.129 13.347-18.949 3.6992-25.035-8.4443-5.3265-20.343 6.615-20.443 20.516-0.0986 13.722-11.073 28.82-18.795 25.857-7.2489-2.7816 1.2823-30.684 14.113-46.16 10.135-12.224 10.318-15.226 1.2188-20.096-12.957-6.9344-22.462 1.643-19.859 17.922 2.3956 14.981-5.6164 40.44-13.703 43.543-6.8866 2.6426-9.2429-15.196-3.6738-27.814 11.308-25.621 7.5894-40.867-6.0176-24.672-11.34 13.497-14.331 15.816-20.383 15.816-3.5489 0-7.4074 2.4932-8.5762 5.5391-3.9267 10.233-9.2616 1.2785-9.2266-15.488 0.0671-32.241 12.899-51.331 45.535-67.74 17.956-9.028 31.818-18.814 37.852-26.725 5.818-7.6278 9.2443-11.598 12.375-11.396zm-2.2109 40.77c-1.765 0.12573-5.6203 8.5806-10.156 23.652-2.6428 8.7812-3.4234 15.967-1.7344 15.967 4.8836 0 10.005-11.994 12.289-28.781 0.96529-7.0956 0.77435-10.568-0.23438-10.824-0.0525-0.0133-0.10712-0.0177-0.16406-0.0137zm-127.66 6.0469c0.33786-0.009 0.67522-0.008 1.0137 0.004 14.621 0.501 29.568 20.222 24.289 36.854-3.6189 11.402-7.2951 8.9149-17.949-12.143-5.4215-10.715-11.151-19.482-12.732-19.482-3.496 0 2.1534 15.602 9.3926 25.938 2.8967 4.1356 5.2676 10.353 5.2676 13.816 0 8.95-6.0309 7.7987-16.109-3.0762-12.034-12.985-12.095-33.656-0.11719-40.066 2.2354-1.1964 4.5803-1.779 6.9453-1.8438zm-144.84 26.486c0.39224 0 5.8352 2.5556 12.094 5.6777 7.5276 3.7552 15.803 4.9563 24.453 3.5488 72.114-11.735 120.3 7.4607 112.4 44.773-1.3435 6.343-2.9315 16.315-3.5293 22.16-2.7132 26.527-3.3201 26.737-5.2168 1.8047-2.1601-28.395-14.416-43.703-14.416-18.006 0 5.9876 1.5928 10.887 3.541 10.887 1.9483 0 3.3806 7.5719 3.1816 16.826l-0.36133 16.826-3.3398-12.398c-9.7006-36.025-11.894-40.736-18.963-40.736-5.5308 0-6.8083 1.9419-5.8262 8.8555 1.2347 8.6917 1.1244 8.7354-5.9453 2.3379-9.8864-8.9464-23.173-4.9733-19.789 5.918 1.3131 4.2265 4.0794 8.3189 6.1465 9.0938 12.782 4.7915 27.405 32.244 17.176 32.244-4.6709 0-17.286-15.193-19.977-24.057-1.577-5.1961-6.1324-8.8503-12.662-10.156-7.6466-1.5293-14.33-8.1411-26.707-26.422-9.0791-13.41-18.896-24.381-21.816-24.381-5.5541 0 4.7817 16.162 23.039 36.023 4.7805 5.2006 9.7704 14.763 11.09 21.252 1.8826 9.2586 4.8804 12.609 13.926 15.566 12.16 3.9753 31.804 21.126 28.258 24.672-3.2679 3.2679-25.151-7.1642-32.625-15.553-7.7949-8.7484-26.904-10.502-26.904-2.4688 0 2.8074 1.8367 6.2385 4.0801 7.625 2.8533 1.7635 2.2354 3.8683-2.0527 7.0039-8.5331 6.2396-1.5069 19.232 10.4 19.232 13.164 0 41.238 14.761 39.027 20.521-1.0243 2.6692-1.8633 8.7086-1.8633 13.42 0 6.2045-1.9525 8.5664-7.084 8.5664-10.026 0-8.8047 5.8846 1.7715 8.5391 4.8707 1.2225 8.8555 3.7861 8.8555 5.6973 0 3.482-8.9906 3.8482-23.91 0.97461-8.3458-1.6075-11.205-11.363-3.543-12.088 2.4353-0.23051-0.18387-1.4256-5.8203-2.6562-19.041-4.1575-20.648-25.264-1.9238-25.264 3.543 0 7.4268-1.5947 8.6309-3.543 4.2508-6.8779-17.317-3.4836-25.256 3.9746-32.782 30.797-70.807-43.319-48.895-95.301 3.0535-7.2434 6.472-23.931 7.5976-37.082s2.3675-23.91 2.7598-23.91zm213.53 53.291c2.0464 0.10202 3.2536 2.0453 2.4629 6.043-0.67439 3.4095-2.1487 10.582-3.2774 15.939-1.1286 5.3577-3.5092 9.7422-5.2891 9.7422-5.8729 0-8.082-14.86-3.4863-23.447 2.9418-5.4968 6.9588-8.4085 9.5898-8.2774zm-54.627 0.56446c2.5968-0.0262 7.3974 1.2209 14.166 4.2129 6.1392 2.7138 14.063 5.8963 17.609 7.0703 4.169 1.3802 6.0478 4.8574 5.3145 9.8418-1.5281 10.387-8.8218 12.212-11.764 2.9434-1.3059-4.1147-7.8183-10.076-14.471-13.248-12.74-6.0752-15.813-10.77-10.855-10.82zm210.83 12.154c3.9137-0.0162 7.2801 1.5244 9.4824 5.0879 3.2444 5.2496-1.2859 32.997-6.5 39.812-4.9131 6.422-20.954 11.16-24.791 7.3223-1.4203-1.4204 0.40989-5.8886 4.0664-9.9297s9.424-12.128 12.816-17.973c4.2497-7.3219 1.5263-5.3957-8.7559 6.1973-16.832 18.978-21.271 20.676-21.271 8.1367 0-18.669 20.976-38.596 34.953-38.654zm-211.76 2.7266c2.2982 0.0396 5.2628 0.86126 9.0644 2.3066 16.353 6.2174 23.496 27.537 7.8555 23.447-5.035-1.3167-9.4991 0.4043-13.336 5.1426-7.5958 9.3804-10.977 5.3073-10.977-13.227 0-12.763 1.5194-17.771 7.3926-17.67zm-48.742 3.1973c3.0121-0.26757 6.4554 6.505 8.291 17.816 1.2597 7.7628 0.66833 12.977-1.4707 12.977-5.2444 0-12.706-20.141-10.037-27.096 0.92484-2.4101 2.0382-3.5926 3.2168-3.6973zm118.01 20.719c11.31 0.10838 20.758 8.8615 20.758 21.068 0 14.505-5.2732 16.302-15.596 5.3144-4.456-4.7432-12.049-9.6153-16.873-10.826-10.876-2.7297-9.0754-9.6793 3.6758-14.186 2.715-0.95949 5.4252-1.3961 8.0352-1.3711zm-98.566 20.701c14.063 0 14.32 4.9862 0.8457 16.324-5.7407 4.8304-11.427 11.902-12.637 15.713-4.3109 13.582-15.891 5.9635-15.891-10.455 0-9.8124 15.096-21.582 27.682-21.582zm57.553 0.29883c35.184 0.22638 70.627 24.726 70.627 54.432 0 3.0192-1.5947 5.4883-3.543 5.4883s-3.541-2.1085-3.541-4.6855c0-4.8919-23.506-17.993-39.223-21.861-6.4507-1.5878-9.0373-4.5046-8.8555-9.9863 0.23838-7.1838-1.6018-7.8197-25.426-8.7852-28.101-1.1388-31.988-4.1124-13.918-10.646 7.6532-2.7674 15.759-4.0073 23.879-3.9551zm-131.21 4.0371c0.31671-0.0127 0.65479-0.01 1.0156 0.008 1.3323 0.0652 2.9655 0.33762 4.8965 0.82227 11.186 2.8075 29.439 15.128 29.439 19.871 0 8.5785-25.58 1.0147-34.537-10.213-5.3466-6.7017-5.5651-10.298-0.81446-10.488zm233.57 9.5352c11.139 0.21803 13.76 12.349 5.209 33.646-1.9136 4.7664-1.491 6.0182 1.4238 4.2168 2.2804-1.4094 5.9233-9.6207 8.0957-18.248 2.1724-8.6274 5.4882-14.735 7.3691-13.572 1.881 1.1625 2.464 5.9239 1.2949 10.582-1.1999 4.7808-0.55332 8.4688 1.4844 8.4688 1.9854 0 3.6094-1.3798 3.6094-3.0684 0-13.501 57.594-22.283 71.971-10.975 5.0409 3.9651 16.225 10.332 24.854 14.148 17.308 7.6562 24.573 16.539 30.205 36.936 4.3001 15.574 16.664 30.264 25.473 30.264 7.4402 0 17.569 11.167 11.871 13.088-12.528 4.2223-34.74 25.398-42.309 40.334-11.973 23.628-27.484 40.388-45.408 49.064-15.825 7.6609-51.42 9.5966-69.572 3.7832-4.8706-1.5598-15.515-2.9953-23.656-3.1894-15.497-0.36967-25.803-7.2465-26.121-17.432-0.14903-4.7692-1.2867-4.3694-5.7461 2.0234-9.8096 14.063-29.49 4.6709-29.49-14.072 0-8.6104 5.0631-7.9022 11.967 1.6738 5.5929 7.7578 5.6866 7.5924 3.5781-6.1992-1.1914-7.7931-4.3786-15.939-7.084-18.102-8.9007-7.1165-5.1283-9.4159 4.8223-2.9394 11.936 7.7687 17.262 14.211 23.588 28.531 5.2777 11.948 21.429 18.872 28.209 12.092 5.9718-5.9719-2.4406-16.209-12.453-15.154-7.7155 0.81257-24.268-28.654-19.035-33.887 2.3331-2.3331 33.711 25.381 33.711 29.775 0 11.641 16.043 13.225 28.021 2.7676 3.3896-2.9592-12.058-15.482-19.098-15.482-8.1057 0-23.092-13.413-23.092-20.668 0-4.5714 22.562 5.6149 38.855 17.541 9.5485 6.9893 24.904 5.7261 24.904-2.0488 0-7.9433-13.17-16.871-21.152-14.338-7.622 2.4191-39.028-8.238-39.053-13.252-0.0178-3.5594 1.0176-3.4755 33.439 2.7285 24.517 4.6915 28.799 4.728 33.252 0.27539 7.6181-7.6181 2.4864-17.714-7.4141-14.586-15.807 4.9935-27.607 6.1342-39.785 3.8496-20.059-3.763-14.323-8.1866 12.584-9.707 13.752-0.77707 26.104-3.1701 27.451-5.3184 2.9276-4.6698 46.099-11.779 71.527-11.779 12.463 0 17.361-1.237 15.678-3.9609-2.3674-3.8304-30.63-2.8901-77.67 2.5859-18.208 2.1196-19.762-3.626-1.7715-6.5488l8.8555-1.4375-9.9726-4.1758c-6.8552-2.8698-12.044-3.068-16.594-0.63281-8.3452 4.4662-46.051 4.6726-46.051 0.25195 0-4.185 32.576-10.255 52.033-9.6953 16.998 0.48906 19.924-1.2465 16.619-9.8594-2.5908-6.7516-6.9189-6.4165-40.15 3.1113-12.527 3.5915-20.53 4.3275-22.766 2.0918-4.4676-4.4676 18.425-14.238 33.361-14.238 9.2625 0 10.81-1.2081 9.8555-7.6934-1.4078-9.5673-7.5898-11.91-14.141-5.3594-9.663 9.663-41.404 22.524-51.816 20.996-10.175-1.4934-12.707-15.116-3.8281-20.604 6.9396-4.2889 2.4036-7.0863-9.2774-5.7226-15.787 1.843-16.184-4.2104-0.88672-13.537 8.3336-5.0811 15.158-7.4429 20.221-7.3438zm-110.97 7.7969c4.0995 0.23763-0.58643 6.9144-9.3223 10.781-11.587 5.129-12.024 5.9111-7.3887 13.232 4.0689 6.426 14.609 2.3866 16.93-6.4883 1.6222-6.2033 10.976-12.771 13.951-9.7949 0.67432 0.67432-1.3534 7.7929-4.5059 15.818-5.9635 15.182-30.925 21.397-35.723 8.8945-3.7124-9.6743 2.6666-29.314 9.5215-29.314 3.6489 0 9.1565-0.96782 12.238-2.1504 1.9402-0.74453 3.3528-1.0334 4.2988-0.97852zm-41.873 3.6035c3.4918 0.1863 4.1986 4.4595 4.1602 19.633-0.0768 30.366-11.997 66.924-17.334 53.164-8.6088-22.194-1.0075-70.213 11.5-72.646 0.61845-0.12035 1.175-0.17701 1.6738-0.15039zm-171.03 4.0801c6.9902-0.16241 13.713 1.3096 18.627 4.9785 13.651 10.192 12.046 13.234-8.1055 15.361l-17.711 1.8691 18.598 2.8906c21.073 3.2758 22.486 5.7378 9.2637 16.139-12.971 10.203-47.953-1.1103-53.744-17.381-4.3976-12.356 15.208-23.442 33.072-23.857zm239.68 17.24c2.757-0.11812 6.8809 1.5059 13.939 4.4629 20.469 8.575 43.71 48.131 28.279 48.131-2.1651 0-3.9375 1.763-3.9375 3.918 0 7.681-22.768 32.499-34.195 37.273-6.394 2.6716-12.873 4.675-14.396 4.4512-53.819-7.9132-78.212-69.295-29.076-73.166 23.049-1.8161 28.442-4.3472 32.193-15.109 2.3627-6.7777 3.6486-9.8091 7.1934-9.9609zm-182.68 23.961c7.1875-0.13424 14.075 1.1876 19.939 4.3184 8.4395 4.5055 7.819 10.145-1.1172 10.145-11.308 0-21.021 6.6041-21.021 14.293 0 3.828 1.9924 6.9387 4.4277 6.9121 10.308-0.11259 20.369-4.6668 20.369-9.2207 0-5.7129 26.854-6.8503 35.32-1.4961 7.341 4.6426 5.1331 5.8573-24.742 13.609-24.716 6.4134-34.649 14.061-25.559 19.68 5.0031 3.0921 18.521-1.6765 18.521-6.5332 0-4.1344 17.556-8.7777 33.525-8.8672 11.481-0.0643-0.56282 8.9811-21.041 15.803-19.681 6.5561-27.519 11.77-24.656 16.402 1.0549 1.7069-6.5346 6.8598-16.865 11.449-10.331 4.5894-26.277 16.399-36.494 25.062l-17.713 16.721 22.836-15.004c36.963-24.287 65.395-33.276 57.277-18.107-4.4441 8.3039-2.0154 11.396 8.9473 11.396 7.1961 0 7.9212 1.2746 6.0508 10.627-1.6911 8.4555-0.90206 10.627 3.8633 10.627 9.8841 0 19.693-6.907 19.693-13.867 0-9.211 30.412-33.505 38.197-30.514 5.8806 2.2598-2.0408 10.989-35.541 39.166-10.41 8.7562-7.8649 16.456 5.0195 15.182 9.148-0.90512 11.949-3.2908 15.172-12.918 3.8187-11.406 20.647-25.582 25.092-21.137 1.1965 1.1966-0.48338 7.3166-3.7324 13.6l-5.9082 11.424 9.1894-2.3066c5.0536-1.2684 9.1875-0.87635 9.1875 0.8711 0 8.3002-11.994 30.364-20.553 37.809-7.8359 6.8157-8.8536 9.4675-5.6524 14.727 9.3699 15.393 28.004 5.1576 25.758-14.148-1.0525-9.0465 7.6298-34.344 11.787-34.344 4.4348 0 3.3304 17.84-2.4844 40.164-7.1586 27.484-6.8365 30.682 3.0801 30.682 9.0716 0 16.064-21.972 9.5117-29.887-3.2116-3.8793 0.56432-32.271 4.8633-36.57 4.8929-4.8929 9.2426 8.5562 8.8926 27.492-0.6626 35.845-0.47305 36.866 5.8379 31.629 5.0807-4.2166 5.3756-1.9133 3.1035 24.133-2.4126 27.658 0.0798 57.055 4.4648 52.67 1.1561-1.1561 1.7679-12.427 1.3594-25.047-0.41688-12.877 1.1671-26.493 3.6113-31.027 2.3955-4.4442 4.7411-11.268 5.2109-15.164 0.46982-3.8965 1.3822-10.272 2.0273-14.168 0.83063-5.0156-1.0492-7.3987-6.4375-8.168-10.435-1.4898-17.596-35.699-8.6328-41.238 4.9288-3.0462 19.195 22.415 19.195 34.258 0 11.802 11.867 22.027 21.344 18.391 8.5687-3.2881 7.1201-9.9805-4.6543-21.492-12.311-12.036-23.064-35.219-17.834-38.451 5.01-3.0963 24.059 18.877 26.67 30.766 2.5966 11.822 14.131 13.754 17.562 2.9414 2.6457-8.3358-0.26346-14.201-7.043-14.201-8.6309 0-18.626-18.572-18.586-34.537 0.0442-17.788 4.9058-19.934 8.0274-3.543 3.3613 17.651 13.2 27.173 31.635 30.617 61.619 11.512 43.011 93.841-30.789 136.21-9.2213 5.2947-21.178 15.154-26.568 21.91-12.124 15.195-9.5935 15.685-32.936-6.3848-10.78-10.2-24.63-21.19-30.77-24.44-32.96-17.41-47.76-69.49-31.23-109.84 4.7077-11.483-11.394-15.549-24.17-6.1035-14.58 10.779-45.244 13.186-68.227 5.3555-23.019-7.8434-32.919-7.2191-52.756 3.3281-20.57 10.937-21.366 10.08-24.436-26.291-2.5642-30.387-0.4349-39.885 15.191-67.775 6.0036-10.715 10.95-22.672 10.992-26.568 0.23496-21.504 29.715-40.55 55.385-41.029zm243.19 14.391c2.9568-0.15564 7.7582 3.1727 14.307 10.008 11.023 11.506 12.087 21.724 3.3203 31.896-5.8283 6.7628-29.225 14.477-29.225 9.6367 0-1.2257 2.5065-7.0752 5.5703-13 3.8474-7.4401 4.8483-15.057 3.2324-24.621-1.5362-9.0929-0.55617-13.744 2.7949-13.92zm-159.22 7.8047c0.94453 0.0358 1.9795 1.5276 3.6406 4.2539 2.2364 3.6705 7.6535 11.075 12.037 16.453 4.3836 5.378 7.9688 13.134 7.9688 17.236 0 9.8975-13.614 10.031-24.127 0.23633-8.6485-8.0572-9.6303-15.862-3.8496-30.627 2.0506-5.2377 3.1157-7.5988 4.3301-7.5527zm220.24 1.123c10.548 0 17.688 1.6998 18.598 4.4277 1.065 3.195-4.1136 4.4277-18.598 4.4277s-19.661-1.2327-18.596-4.4277c0.90932-2.728 8.0475-4.4277 18.596-4.4277zm-76.656 17.547c1.0184 0.0644-0.40382 4.0204-4.4785 11.854-5.6347 10.832-18.538 22.871-28.83 26.898-20.058 7.8494-48.96 3.7925-60.016-8.4238-8.1802-9.0392-5.1449-9.0597 9.6055-0.0664 22.841 13.926 55.674 5.5491 73.557-18.768 5.6856-7.7312 9.1437-11.559 10.162-11.494zm-158.85 17.039c1.259-0.0565 2.1897 0.13112 2.6758 0.61719 1.3955 1.3954-3.0314 7.1524-9.8379 12.795-13.662 11.326-29.589 14.127-27.689 4.8691 1.1365-5.539 26.039-17.886 34.852-18.281zm14.197 13.391c6.5809 0.13821 4.0702 8.2121-8.75 18.441-11.594 9.251-26.756 13.114-26.756 6.8164 0-3.8289 13.86-16.371 23.678-21.428 5.2863-2.7226 9.253-3.8842 11.828-3.8301zm62.26 19.418c3.4881 0.005 8.2454 0.29233 14.703 0.78711 28.606 2.1917 27.485 1.4673 21.549 13.908-9.7805 20.497-45.459 12.764-45.459-9.8535 0-3.4988 1.5332-4.852 9.207-4.8418zm158.53 65.441c19.68 0 34.178 13.748 34.178 32.41 0 5.4944-5.1327 2.9084-23.025-11.604-21.048-17.071-23.05-20.807-11.152-20.807zm-11.467 17.713c6.0026 0 38.561 18.42 38.561 21.816 0 3.9034-24.331 3.4285-34.537-0.67383-8.3296-3.3481-11.716-21.143-4.0234-21.143zm-255.61 7.084c12.044 0 10.774 11.997-3.375 31.867-9.5703 13.44-12.743 13.392-15.469-0.23633-3.2623-16.312 5.8631-31.631 18.844-31.631zm19.639 7.084c13.9 0 4.1557 32.178-12.326 40.701-18.203 9.4131-19.125 4.7601-3.6133-18.225 5.8448-8.6603 10.627-17.261 10.627-19.111 0-1.8506 2.3901-3.3652 5.3125-3.3652z"/>
</svg>
