<?xml version="1.0" encoding="UTF-8" standalone="no"?>
<svg id="svg2" xmlns:rdf="http://www.w3.org/1999/02/22-rdf-syntax-ns#" xmlns="http://www.w3.org/2000/svg" height="375.29pt" width="534.06pt" version="1.1" xmlns:cc="http://creativecommons.org/ns#" xmlns:dc="http://purl.org/dc/elements/1.1/" viewBox="0 0 534.05768 375.28641">
<g id="g4205" transform="translate(60.959 28.741)">
<path id="path4203" d="m-53.203-24.741 259.27 364.39 259.27-364.39z" stroke="#000" stroke-linecap="round" stroke-width="8" fill="none"/>
<path id="path4179" d="m-38.742-16.338 296.33 416.47 296.33-416.47h-592.66zm419.35 19.752c22.603-0.14048 43.315 33.677 20.904 46.736 3.625-8.5625 2.8383-21.088-6.6992-25.176 2.3625 7.65 5.7625 15.276 5.0625 23.488-7.1625 1.425-4.4246-10.001-7.8496-14.176-8.4-12.45-24.388-17.163-37.775-22.213-0.225-6.6125 11.351-4.5488 16.676-6.3613 3.1859-1.5656 6.4526-2.2788 9.6816-2.2988zm126.15 0.61133c9.28 2.5625-10.86 11.3-14.9 12.725-16.78 16.275-40.35 21.638-62.86 24.488 9.2625-17.062 36.775-11.352 49.85-23.977-23.462 1.275-44.237 12.025-62.324 25 10.375-38.063 59.199-35.499 90.236-38.236zm-365.9 0.8789c5.3215-0.035156 12.882 1.8996 6.4512 5.0215-22.375 3.2875-32.275 28.373-32.25 47.461-9.3875-8.075 0.24961-26.123 4.8496-36.336-11.738 3.5875-8.6504 19.85-14.713 26.412-8.0625-3.85-6.1875-16.2-4.125-23.662 4.8-14.75 22.625-16.788 35.812-18.176 0.675-0.47812 2.2008-0.70898 3.9746-0.7207zm114.37 1.5605c0.20439-0.0002995 0.42071 0.010937 0.64844 0.035156 1.575 5.425 2.6875 10.988 4.25 16.426 6.725-1 1.2875-12.15 7.25-13.088 3.3375 3.525-0.24922 11.8 4.9883 12.85 2.5875-4 1.2996-10.024 5.1621-13.074 3.0875 4.6875-0.28828 14.449 6.0117 15.486 0.275-6.1375 6.1129-20.462 6.4629-5.1367 3.225 9.15 4.6258-10.951 8.6758-4.9258-9.3125 30.938-10.639 65.05-27.852 93.162-7.725-15.838 4.1254-41.811-4.5371-54.799-3.35 25.825 0.62617 52.361-3.8613 78.174-5.3875-25.8-3.675-52.611-4.125-78.861-0.8375-0.0625-2.5004-0.17461-3.3379-0.22461-3.2375 26.512 2.6121 56.599-1.1504 81.111-6.2125-24.888-5.6633-55.099-8.7383-81.574-4.3 24.75 1.1379 49.737 0.65039 74.537-5.5875-20.6-7.0867-41.888-9.8242-62.9 0.1875 11.5-1.7004 24.438 1.5371 36.25-5.675 0.6625-2.9996-15.836-8.7246-8.6738-11.338-22.212-5.1125-50.639-10.188-74.914-0.475-16.675 4.6492 1.2516 6.7617 6.3516 6.775-0.9875 0.77461-12.227 4.9121-16.164 3.6 2.2875 3.8387 11.614 7.4512 16.102 4.825-3.1625-0.76367-11.989 4.5488-15.389 3.7375 3.8125 1.6629 16.526 8.9629 14.988 2.325-4.2504-2.2714-15.739 4.0644-15.748zm-248.83 1.3633c0.098975 0.00514 0.2043 0.023437 0.31445 0.058594 27.75 3.9875 69.963-8.7 83.188 25.812-16.412-8.837-35.538-18.986-53.462-13.961 14.638 7.075 43.849 3.75 53.699 22.625-29.462-6.8-60.762-10.352-84.6-30.664-0.8554-0.832-0.6232-3.948 0.8614-3.8709zm316.09 14.932c3.2753-0.33925 1.2324 6.416 1.7598 8.8652 4.9875 3.125 4.7742-8.1117 9.4492-6.1992-0.175 3.9125-0.88711 7.775-1.1621 11.688 5.7875 1.6 4.6883-10.064 10.051-9.2637-0.6625 4.475-1.8125 8.8383-2.5625 13.301 5.4375 0.7 6.175-10.538 11.188-7.9883-0.8 4.625-1.7379 9.2375-2.4629 13.875 5.3375 0.775 5.2379-9.8113 11.338-9.4238-1.0875 4.9375-3.0133 9.6484-4.1133 14.586 5.4-0.925 7.2387-7.4738 11.764-9.3613-1.5 5.375-3.7875 10.5-5.125 15.912 1.8375 4.3 13.599-14.2 11.236-3.5371-5.975 9.875-8.7863 16.236 3.4512 9.6113-23.588 23.612-36.163 58.064-64.863 76.326 8-15.45 22.312-26.838 29.975-42.4-13.862 9.975-19.762 28.824-34.512 37.887 9.6-18.225 23.099-33.962 33.174-51.824-13.925 13.525-23.862 31.313-35.5 47.025-1.2875 0.825-4.4492 2.825-2.7617-0.1875 9.1625-19.625 22.088-37.413 32.213-56.525-15.525 12.625-20.876 35.437-36.238 48.699 7.325-20.15 18.812-38.55 29.125-57.188-14.6 12.925-19.299 32.876-30.049 48.551-1.45 2.1375-7.5754 4.6742-2.1504-2.9258 3.875-15.5 13.387-28.8 19.199-43.475-11.612 9.875-14.962 27.413-24.062 39.9-4.875-8.775 16.7-29.35 4.375-31.275 7.0875-18.938 17.037-36.686 26.537-54.486 0.26797-0.08906 0.51016-0.1434 0.72851-0.16602zm-136.73 0.49c19.075 14.212 28.625 44.663 34.15 68.926-9.875-2.3625-9.3504-18.525-18.9-23.25 2.8875 10.025 8.7266 19.075 10.352 29.475-10.688-8.1-15.088-23.875-23.301-34.963-0.0125 12.138 11.138 21.849 13.113 33.574-9.65-3.4-12.175-17.799-21.275-23.174 4.1875 11.338 13.063 20.162 17.338 31.449-8.975-4.45-11.089-18.1-19.639-21 1.425 12.9 16.351 19.626 19.801 32.176-9.125-6.6875-15.462-16.487-23.85-23.662 3.4625 12.437 15.812 19.923 20.312 32.086-12.26-4.63-13.94-20.41-25.24-26.015 5.24 9.275 11.93 17.775 16.13 27.625-22.15-16.86-37.11-42.15-46.93-67.725 8.525 3.4 7.1883-2.7508 4.7383-8.8008 5.1875 1.5125 12.963 6.6504 8.5508-2.3496-3.6875-9.7125 4.225-0.09961 8.8125-0.34961 0.7625-5.1125-6.85-8.8383-3.6875-13.551 4.6875 0.975 6.7242 6.7008 11.387 7.2383-0.825-3.9875-1.9133-7.9246-2.7383-11.912 4.9125 0.675 6.5391 7.1875 11.477 8.4375 2.7375-4.5375-2.3016-8.6258-3.9141-12.613 6.7125-5.0625 12.075 13.4 13.312-1.625zm-98.926 25.76c4.2768 0.07872 8.5484 1.3352 12.141 3.5781-14.412 1.7875-29.161 7.5496-42.236 11.725 13.212 4.3625 33.499-10.826 46.949-4.1758-14.838 8.575-37.937 19.1-56.449 8.9004-4.0625-3.3375-15.514-4.8379-12.914-12.213 15.962 1.25 31.563-2.5238 46.738-7.1738 1.8828-0.46875 3.8275-0.67641 5.7715-0.64062zm329.2 3.916c20.538 0.8125 42.625 5.1863 62.188 5.0488-10.212 25.762-47.361 14.362-66.486 9.9746 7.7625-13.688 31.012 2.9262 41.824-3.7363-16.175-1.3125-32.038-7.4387-48.4-4.2637-2.3-6.225 7.3125-6.4109 10.875-7.0234zm-20.525 2.4375c9.2875 2.3875-8.8492 18.724-12.574 16.199 2.8625-6.0375 7.4867-11.837 12.574-16.199zm-276.29 5c7.35-0.1125 13.112 9.2496 14.287 15.662-5.325-1.2125-18.175-10.225-14.287-15.662zm0.0137 16.699c16.112 13.488 35.598 26.874 44.398 46.512-7.4375 4.8625-13.449-9.7875-21.299-6.5625 3.475 3.6625 9.9996 5.0875 11.35 10.438-10.025 1.2875-15.563-14.561-23.551-10.961 1.475 6.375 12.651 5.8246 13.426 13.662-7.275-1.9125-12.925-7.3-19.812-10.062-3.1375 9.5625 16.4 9.5629 18.662 18.775-8.3125-2.6375-15.187-8.1625-22.6-12.562-1.35 9.7375 17.662 9.8613 19.699 20.236-9.125-1.75-15.038-10.311-23.562-13.611 0.475 9.475 18.589 9.8875 13.264 19.562 3.4 3.5625 27.324 12.475 11.449 10.725-19.825-10-35.174-26.825-53.674-38.938-2.875-1.625-7.1016-9.1875-0.85156-7-4.1125-2.2625-8.0359-10.775 1.5391-6.5 12.6 2.775-10.363-11.576 5.4492-7.4258 9.125 3.5-3.8496-9.1242 8.4004-4.5742 7.1625-1.125-8.875-10.45 4.875-7.4121 6.175-1.85-5.9512-5.0125-4.8887-8.5625 4.8875 1.1375 13.325 4.6609 9.625-3.5391 3.3625 1.9375 7.3266 2.6758 8.1016-2.1992zm270.95 0.91211c3.3692 0.18022-2.3359 13.502 7.2852 3.3887 13.2-12.112-5.75 14.725 5.375 6.4121 4.7-3.15 8.55-4.0004 4.875 2.4746-6.3625 12.262 18.962-7.8246 7.9746 5.5254-7.825 10.5 2.2883 4.1988 7.9258 3.1113 1.275 6.5875-10.812 8.9754-7.375 14.838 5.1625-3.2375 18.375-10.275 8.6875 0.96289-11.312 11.7 11.862-2.9004 7.7617 6.5996-33.012 23.238-67.4 45.838-105.79 59.463-1.7875 0.2625-4.7 1.1867-4.5625-1.6133 18.75-9.25 39.501-16.224 55.326-30.262-17.575 4.075 1.2117-1.2117 3.4492-8.6367-4.9875 1.3875-9.7246 3.5-14.662 5 4.8375-8.9625 18.5-9.8012 23.037-17.889-16.212 4.425-28.738 17.876-44.551 23.926 12.138-11.212 28.039-18.225 39.014-31.025-10.25 3.4875-17.812 11.749-27.6 16.074 5.4-12.225 21.237-15.286 27.162-26.361-11.275 3.5625-19.625 12.974-29.625 18.949 4.675-8.3625 13.762-13.162 18.375-21.625-8.7875 4.5875-14.513 13.3-23.4 17.85 4.2-6.5625 9.9629-12.011 13.588-18.961-8.2625 6.725-15.675 14.573-24.775 20.273 13.738-19.3 31.299-36.224 51.699-48.324 0.3125-0.11562 0.57812-0.1624 0.80273-0.15039zm-111.14 30.905c7.6875 28.588 3.0613 66.288-12.076 94.938-2.6875-19.125 8.3391-37.787 8.1641-56.324-12.862 18.6-8.7016 45.448-16.289 65.586-10.762-36.362 10.364-70.312 20.201-104.2zm-57.551 3.7871c11.388 23.088 36.125 51.737 28.625 80.975-7.55-11.85-12.275-31.512-19.188-44.512-1.225 19.162 19.113 40.488 17.775 60.75-22.89-24.59-27.99-65.81-27.22-97.22zm116.63 28.832c2.7417-0.0277 0.83515 4.0188-1.4727 5.1562-22.088 16.062-26.962 49.2-53 60.65 6.1375-11.6 16.975-20.35 22.562-32.275-13.625 8.95-18.688 29.225-34.75 34.975 7.6625-32.425 36.712-54.275 65.188-68.225 0.59375-0.19062 1.081-0.27729 1.4727-0.28125zm-176.41 2.3184c34.488 4.0875 58.513 31.226 74.463 59.926-15.262-4.125-22.325-20.388-32.4-29.938 7.7125 18.462 23.701 32.323 40.988 41.773 1.2875 8.075-11.212 2.6012-14.762 0.82617-27.025-16.2-37.35-49.312-63.588-66.475-1.5625-1.8-5.8512-2.9883-4.7012-6.1133zm-0.86719 42.781c16.004 0.21858 31.826 7.4402 43.168 18.443-10.4 2.55-21.199-11.4-29.949-9.25 17.938 11.3 37.525 20.325 57.188 28.537-34.8 6.075-55.764-31.849-89.576-30.799-5.8-5.5625 9.3375-5.7004 12.312-6.5879 2.2812-0.26406 4.5711-0.37498 6.8574-0.34375zm192.47 0.20117c5.2487-0.0786 10.034 0.87735 13.107 4.793-28.175-1-47.687 29.038-73.637 30.125 14.988-7.5875 28.637-17.875 43.412-25.875-19.45 0.175-35.851 21.425-55.863 24.25 14.925-13.688 32.552-27.901 53.102-31.951 5.618 0.56953 13.131-1.2407 19.879-1.3418zm1.7832 30.73c1.7402 0.20063-0.49726 4.416-1.7871 5.7363-15.038 18.012-18.15 42.262-31.088 61.438-14.738 22.262-37.2 37.076-57.025 54.176-8.825 7.45 4.825 28.026-8.5625 30.051-7.65-9.5875 4.9879-27.938-9.0996-34.15-33.512-15.288-50.162-50.575-63.125-82.9-5.725-15.075-20.513-21.788-33.213-29.688 13.612-5.6 28.375 8.1129 40 15.4 19.438 11.9 41.575 29.375 47.938 51.65-13.85-7.925-26.5-25.613-40.6-36.426 6.1125 23.338 17.837 43.849 37.162 58.949 6.7125 2.5875 15.026 28.525 19.676 12.463-2.0875-29.275-15.675-56.65-30.688-81.525-1.875-2.75-4.0129-9.5617 1.5996-6.6992 13.962 18.662 23.588 43 28.9 63.85 2.25-17.7 2.5367-39.55-3.0508-58.275-6.225-9.6 17.575-11.423 12.562-0.89844-5.5375 20.612-4.0254 42.512-2.1504 63.537 5.925-26.712 16.738-52.475 34.801-73.4 2.85-1.975 4.85 0.53828 3.3125 3.3633-19 29.1-35.351 63.886-36.863 98.336 25.275-13.45 38.575-40.961 56.412-62.336-5.075 4.1375-10.199 8.1988-15.449 12.111 2.575-5.125 7.5992-8.8863 9.1367-14.486-16.512 3.55-23.875 21.261-36.375 29.461 4.6375-24.862 30.325-33.686 46.25-49.773 8.4375-10.825 15.338-24.925 29.426-29.375 0.88594-0.46641 1.4988-0.63419 1.9004-0.58789zm-94.65 4.9668c5.9096 0.0742 14.24 3.1414 9.375 8.7578-8.25-3.5-16.825 0.28711-25.15-1.0254 1.3875-5.475 7.1762-7.1988 12.264-7.2988 0.91406-0.30703 2.148-0.45071 3.5117-0.43359z" transform="scale(.8)"/>
</g>
</svg>
