<?xml version="1.0" encoding="utf-8"?>
<!-- Generator: Adobe Illustrator 13.0.0, SVG Export Plug-In . SVG Version: 6.00 Build 14948)  -->
<!DOCTYPE svg PUBLIC "-//W3C//DTD SVG 1.1//EN" "http://www.w3.org/Graphics/SVG/1.1/DTD/svg11.dtd">
<svg version="1.1" id="Layer_1" xmlns="http://www.w3.org/2000/svg" xmlns:xlink="http://www.w3.org/1999/xlink" x="0px" y="0px"
	 width="182px" height="503.027px" viewBox="0 0 182 503.027" enable-background="new 0 0 182 503.027" xml:space="preserve">
<g>
	<g>
		<path fill-rule="evenodd" clip-rule="evenodd" d="M49.039,2.528c1.604,0.587,1.246,3.136,3.033,3.539
			c7.015-2.903,9.685,5.963,4.55,8.594c2.721,5.705,3.475,13.377,4.044,21.233c13.009-4.686,23.842-11.547,33.873-19.211
			c-4.901-13.164,12.237-6.314,18.706-11.122c0.276,2.972-2.032,3.361-2.022,6.067c8.035-1.811,19.534-6.421,28.817-7.078
			c5.184,1.22,10.462,2.346,14.661,4.55c4.547,4.552,8.812,9.388,12.639,14.661c2.365,0.511,1.68-2.028,4.045-1.517
			c6.685,1.377,3.855,12.891-3.54,9.605c-0.698,2.672-2.396,4.345-3.033,7.078c-1.501-1.195-1.132-4.261-3.033-5.056
			c-2.271,1.589-1.891,3.671-3.539,5.561c-7,8.024-21.336,7.155-29.828,1.011c-1.455,3.899-7.715,4.68-9.606,0.506
			c1.419-5.561-0.268-6.423-1.516-11.123c2.25,0.615,5.18,0.549,8.089,0.506c1.074-3.644,2.923-6.513,5.055-9.1
			c-2.497-0.782-5.364,0.674-6.572-3.033c-23.952,5.876-40.218,19.438-63.195,26.289c-0.031,35.481,0.095,62.604,0.506,96.056
			c3.42-1.113,8.94-0.396,11.122,2.527c0.258,2.112-0.282,3.425-1.011,4.55c7.444,8.718,2.397,25.867-8.088,27.3
			c0.72,7.305-2.241,14.988-0.506,23.256c1.178,5.613,6.377,9.812,6.572,15.672c0.237,7.123-4.422,11.153-5.056,17.189
			c-1.351,12.854,1.07,25.938,0,43.478c1.284,1.447,4.695,0.612,6.067,3.033c0,1.179,0,2.359,0,3.539
			c5.446,6.061,6.058,20.479,0,26.289c-1.974,0.554-3.328,1.729-5.056,2.527c0.825,12.618-1.304,24.105,0.505,34.884
			c1.561,9.296,7.64,18.827,1.517,27.3c-0.313,33.032,0.675,61.901,1.011,95.551c1.508,2.366,3.836,3.915,7.078,4.549
			c1.307-1.727,1.111-4.955,4.044-5.056c-3.163-3.24-7.357-5.449-9.1-10.11c0.467-5.569,0.813-9.831,1.011-14.662
			c2.44-1.941,6.984-1.778,7.583-5.561c0.304-1.82-1.543-1.49-1.516-3.033c2.359,0,4.718,0,7.078,0
			c0.878-9.445,15.143-0.948,6.066,3.033c0.798,1.393,1.72,2.661,3.033,3.539c2.712,0.353,2.216-2.503,4.55-2.527
			c0.265,1.588,0.887,2.82,1.517,4.045c3.328-0.633,4.439,0.953,6.572,1.516c1.112,3.773,0.302,7.389-2.528,8.595
			c-0.362,1.373,2.384-0.362,2.022,1.011c-1.319,5.914,7.124,11.437-3.033,13.65c-3.233,11.842-21.326,17.104-33.872,10.616
			c-4.578,5.703-7.399,13.16-10.617,20.223c-3.663,0.426-7.156-0.398-9.1,2.527c-2.145-1.81-10.908-3.098-12.133-1.011
			c-1.799-3.595-7.128-3.658-9.606-6.572c0.27-8.529-0.939-12.772-3.539-18.706c7.499-1.602,8.84-9.359,16.684-10.616
			c0-1.349,0-2.695,0-4.044c-11.321-0.932-21.159-5.179-22.75-15.167c-1.964-12.327,7.253-20.065,20.222-20.223
			c-3.116-3.451-3.01-9.649,0.506-12.639c-5.966-5.147,5.591-9.43,7.078-2.527c2.823-1.223,4.848-3.241,7.078-5.056
			c-1.157-5.408-0.331-10.717-2.528-15.672c-2.091-0.605-4.531-0.861-5.561-2.528c0.305-6.1,2.456-10.352,2.022-17.188
			c2.114-1.061,2.704,3.21,5.561,3.032c-0.499-9.292,0.293-25.369-0.505-34.377c-0.334-3.771-4.787-8.641-7.078-12.639
			c-4.012-7.002-7.695-13.417-8.089-23.256c-5.88-1.002-5.601-9.577,0.506-10.111c-0.008-2.199-0.167-4.549,0.505-6.066
			c2.967-1.411,6.902-3.535,8.089-8.089c1.498,0.355,2.201,1.506,4.55,1.011c-0.172-11.534,2.411-33.211-7.583-36.399
			c-0.04-5.601,3.302-7.82,2.022-14.661c2.979-0.284,2.681,2.711,5.056,3.033c0.824-7.179-0.347-13.143-0.505-19.717
			c-0.126-5.216,1.269-11.442,0-17.189c-0.958-4.34-5.825-7.846-8.089-12.639c-3-6.349-3.623-12.187-4.55-19.211
			c-1.702-0.393-3.233-0.284-5.056-1.516c-3.803-8.773,7.22-7.802,7.584-14.661c2.318,1.162,4.964,0.029,4.549-3.033
			c1.754-0.405,1.944,0.753,3.539,0.505c-0.259-16.118,0.946-33.064-1.517-47.522c-3.034,0.852-4.719-0.029-6.572-1.517
			c0.378-5.351,3.954-7.505,4.044-13.145c0.271-2.338,1.971,1.406,3.539,1.011c1.213-12.472-0.151-19.618,0-32.861
			c-5.44-1.4-14.092-0.953-20.222-5.561c-2.492-1.873-5.582-7.24-7.583-9.1c-2.136-1.986-4.137-1.99-3.539-5.561
			c0.35-2.089,2.237-3.102,3.539-4.55C18.655,9.352,33.462,2.514,45.5,7.078C48.186,6.184,49.199,5.333,49.039,2.528z M35.389,13.65
			c-1.717-0.872-3.705-0.352-5.561,0c0.1,6.473,10.016,3.129,11.628,8.089c-2.663,0.135-3.43-1.625-6.572-1.011
			c-0.283,0.729-0.789,1.234-1.517,1.517c-0.475,2.834,1.291,3.428,1.517,5.561c-0.472-0.309-1.865-1.176-1.517,0.505
			c1.204,3.516,5.196,4.242,9.606,4.55c10.48-9.988-12.673-16.633-3.033-25.784C35.838,5.672,34.47,11.057,35.389,13.65z
			 M125.378,12.639c11.111-4.58,26.224-1.413,30.333,7.078c-1.548,1.054-0.015,3.696-0.506,6.572
			c-0.319,5.747-7.578,4.555-9.605,8.594c6.936,1.928,9.856-4.21,11.628-9.1c3.651,17.767-28.526,20.038-26.289,3.539
			c0.732-5.399,6.757-4.44,8.089-10.111c-7.769,0.602-12.765,6.291-11.122,14.661c-2.431-1.501-5.827-2.454-8.089-1.517
			c0.385,2.143,2.357,2.699,3.539,4.044c-1.668,0.185-2.215,1.492-3.034,2.528c-0.166,2.806,5.674,4.706,6.067,1.011
			c-1.27-1.905-2.349,1.5-3.033,0c-0.037-1.722,1.487-1.883,2.528-2.528c8.289,6.162,24.615,9.585,31.85,0
			c3.835-5.08,3.536-13.477-0.505-19.717c5.118,3.14,3.566,12.949,8.088,16.684c-0.009-2.2,1.563-2.818,1.012-5.562
			c1.442,0.917,2.242,2.476,5.056,2.022c1.013-0.84,2.35-1.357,2.527-3.033c-1.108-1.117-2.066,0.5-4.045,0
			c-3.615-1.419-4.599-5.257-6.571-7.583c-2.654-3.129-6.386-6.982-9.606-9.1c-20.238-13.309-45.405,7.512-62.183,12.639
			c7.048-3.906,15.483-6.424,18.2-14.661c-4.563-0.35-5.813,2.613-8.089,4.55c0.324-2.008-0.642-2.729-1.516-3.539
			c-4.004-1.365-6.297,4.082-2.528,4.55c1.684-0.159-1.521-2.396,1.012-2.022c1.003,4.647-4.558,7.517-7.583,9.606
			c-10.998,7.592-23.835,14.251-37.411,18.2c0,1.18,0,2.359,0,3.539c28.608-5.433,43.988-24.093,73.811-28.311
			c0.734,0.845,2.465,2.025,1.011,3.539c-2.672,0.194,0.23-2.049-2.528-1.517c-0.391,3.661,4.796,1.661,5.562,0.506
			c1.059-4.529-3.241-6.06-6.573-4.55C124.871,13.143,125.281,13.049,125.378,12.639z M48.533,13.65
			c-1.539-0.483-2.034-2.01-4.55-1.517c-0.519,5.743,5.763,4.685,6.066,9.605c-2.14-0.568-3.462-4.61-6.066-3.033
			c3.472,1.92,3.406,7.379,4.044,12.133c9.712-1.387-2.643-18.843,7.583-19.717c0.611,0.107,0.311,0.561,0,1.011
			c5.738-2.102-2.501-7.382-3.54-2.022c-1.253-0.6-0.609-3.098-3.033-2.528C48.102,9.402,49.087,12.67,48.533,13.65z M39.433,11.628
			c0.956-0.114,1.116,0.569,2.022,0.505c-0.074-1.254-0.094-2.454,1.011-2.528c1.109,0.576,2.066,1.305,4.044,1.011
			C45.146,7.506,39.542,7.43,39.433,11.628z M27.3,11.628c2.658-0.039,5.876,0.483,5.562-2.528
			C30.646,9.581,28.432,10.063,27.3,11.628z M131.95,12.639c1.653,1.408,0.529,5.852,1.011,7.078
			c1.19-1.506,3.734-1.659,5.561-2.528c-1.685-8.617,8.894,0.886,12.639,0C147.195,13.441,139.817,10.849,131.95,12.639z
			 M22.75,17.189c1.556-0.377,0.972,1.388,2.528,1.011c0.89-1.301,2.199-2.184,3.033-3.539C26.603,10.713,23.15,14.142,22.75,17.189
			z M42.972,16.683c-0.173-1.849-1.73-2.313-3.033-3.033C39.964,15.647,40.975,16.658,42.972,16.683z M54.6,37.917
			c1.753,0.405,1.943-0.753,3.539-0.505c0.385-7.657-0.265-18.59-4.55-23.255C53.004,21.063,54.888,29.644,54.6,37.917z
			 M139.533,29.322c1.362-3.783,6.678-3.706,8.089,0c2.303-1.81-0.043-3.638-1.011-5.056c3.113-0.427,5.063-2.014,6.067-4.55
			c-2.88-1.376-5.928,0.126-8.089,1.011c1.389-2.771-0.501-5.185-3.034-5.561C141.904,20.623,137.499,23.847,139.533,29.322z
			 M28.817,17.694c1.212,0.979,1.543,2.838,3.539,3.033c0-0.336,0-0.674,0-1.011c0.308-0.029,0.598-0.076,0.506-0.506
			C31.3,19.014,29.833,15.321,28.817,17.694z M23.256,26.289c-1.26-0.425-2.709-0.662-4.55-0.506c-1.068,1.18-2.475,4.382,0,5.056
			c0.886-0.756-0.447-2.11,1.517-2.528c9.304-1.348,11.768,11.544,19.717,6.572c-5.171-0.558-7.497-3.962-9.605-7.583
			c0.889-1.796,0.941-6.502-1.517-6.572c-1.214,0.64,0.279,3.986-1.012,4.55c-2.254-1.454-2.189-5.226-5.561-5.561
			C21.734,22.754,22.986,24.031,23.256,26.289z M150.15,24.772c1.498,2.762-0.81,4.504-2.022,6.066
			c3.955-0.641,7.313-4.864,4.55-8.089C151.611,23.199,151.8,24.905,150.15,24.772z M172.394,26.289
			c0.507-2.361-0.881-2.826-3.033-2.528C168.245,25.733,170.695,27.133,172.394,26.289z M150.15,36.4
			c-7.215-0.657-15.871,1.625-16.178-5.056c-0.161-3.518,3.267-4.06,3.539-6.572C124.842,28.375,140.756,46.371,150.15,36.4z
			 M143.578,28.311c-1.948,0.748-1.945,3.448-4.55,3.539c-0.672-0.508-1.881-0.478-2.022-1.517c0.378-0.955,1.509-0.351,0.505-1.517
			c-0.112-0.394-0.423-0.587-1.011-0.505C130.406,37.622,150.752,35.49,143.578,28.311z M21.233,31.344
			C24.53,41.023,33.17,45.359,46.006,45.5c0.405-1.754-0.753-1.943-0.506-3.539c-8.652-0.11-14.051-3.475-19.211-7.078
			c-0.734-1.793-1.02-4.037-3.539-4.044C22.054,30.817,21.64,31.077,21.233,31.344z M52.578,35.895
			c1.058-1.206,0.302-3.664-1.011-4.044C51.483,33.619,51.701,35.086,52.578,35.895z M43.478,34.883
			c1.032,2.97,5.593,1.922,5.056-2.022C45.975,32.413,43.972,32.231,43.478,34.883z M53.589,134.478
			c-2.295-29.763,1.879-68.76-3.539-98.078c-0.742,1.28-3.241,0.803-3.539,2.528c3.252,15.291,2.993,34.768,1.517,50.05
			c-0.34-2.811-1.71-6.893-4.044-6.066c-0.05,2.073-0.099,4.144,0.505,5.561c-3.024-0.497-4.315,0.74-4.044,3.539
			c0.517,0.494,1.022,0.999,1.516,1.517c2.815,0.792,2.854-1.19,3.539-2.528c5.373,13.546,2.568,32.764,3.539,50.049
			C50.979,139.282,51.559,136.156,53.589,134.478z M36.906,38.928c2.388,0.477,4.743,0.987,7.583,1.011
			c-0.283-1.57-0.603-3.104-2.528-3.033C40.667,37.971,38.318,37.981,36.906,38.928z M55.105,46.005
			c-0.02,22.192-0.854,55.672,0,80.384c0.129,3.743-0.599,8.457,3.033,10.111c2.43-6.679,1.127-15.797,1.011-24.267
			c-0.253-18.55,1.028-47.093-1.517-66.733C56.416,45.293,56.534,46.423,55.105,46.005z M50.555,143.072c-1.516,0-3.033,0-4.549,0
			c0.561,4.158,4.852,4.585,6.572,7.583c-2.401-0.21-4.136,0.246-5.561,1.011c1.517,4.553,12.455,2.371,10.111,9.099
			c-2.195-0.332-0.967-4.088-3.539-4.044c-3.85,0.347-2.961,5.442-2.022,8.089c2.589,1.21,4.752,2.79,7.078,1.516
			c10.674-5.844-8.9-21.444-3.033-27.299c-0.6,2.117,0.769,2.264,2.527,2.021c0.221-1.738-0.2-2.833-0.505-4.044
			C53.182,135.183,50.826,139.104,50.555,143.072z M60.667,148.128c-0.289-1.397-0.536-2.835-2.528-2.528
			c1.438,5.639,5.95,8.206,5.056,16.178c-0.543,1.311-1.229,2.479-1.012,4.549c12.524-1.941-0.703-16.185,5.056-21.738
			c-0.407,2.092,0.776,2.594,2.528,2.528c2.292-1.597,1.305-5.134-1.517-5.561c-1.961,0.061-2.555,1.49-3.539,2.528
			c-0.761-0.755-0.151-2.882-2.022-2.528C61.186,143.737,62.271,147.049,60.667,148.128z M57.633,144.589
			c-0.038-0.881,0.113-1.572,0.505-2.022c-0.842,0-1.685,0-2.527,0C55.376,144.149,56.051,144.824,57.633,144.589z M42.972,149.139
			c1.734-0.084,2.691-2.618,2.022-3.539C42.694,145.117,41.812,147.726,42.972,149.139z M37.917,153.183
			c-1.187-0.161-1.897-0.799-3.539-0.505c-0.769,1.422-2.395,1.987-2.022,4.55c0.81,0.875,1.53,1.84,3.539,1.517
			c0.541-1.889-1.255-1.441-1.011-3.034c10.612-5.009,6.02,16.062,17.188,12.134c-3.292-2.741-2.817-8.126-2.527-12.134
			c-2.916-0.051-1.226,4.504-2.528,6.067c-1.392-1.754,0.034-5.002,0-7.077c-0.543-1.984-3.333-2.687-4.55-2.529
			c-0.78-1.748-0.887-4.168-3.034-4.55C38.409,148.957,38.898,151.806,37.917,153.183z M69.767,159.755
			c-0.389,6.663-6.145,10.949-13.145,11.628c-2.321-0.753-2.701-3.857-5.561-1.518c13.208,14.476,32.724-13.889,16.178-21.738
			C66.689,152.326,70.026,155.302,69.767,159.755z M43.983,151.161c1.752,0.066,2.935-0.436,2.528-2.528
			C44.71,148.517,43.868,149.36,43.983,151.161z M37.917,158.745c-0.789,22.631,17.583,32.961,23.762,48.533
			c0.977,2.464,2.356,7.571-0.506,9.101c1.173-2.79-0.337-9.562-3.034-11.628c-0.445,17.766,0.506,40.388,0.506,59.655
			c0,4.626-1.661,11.19,3.034,13.145c1.273-9.058,1.011-18.774,1.011-29.827c0-6.566-0.953-13.993,0-19.211
			c1.232-6.754,6.523-9.86,4.044-19.212c-2.308-8.704-10.093-15.241-15.672-23.255c-6.286-9.03-7.57-18.144-11.122-28.311
			c-0.646-0.028-0.7-0.649-1.517-0.506C38.395,157.874,37.774,157.928,37.917,158.745z M55.611,169.36
			c1.7,0.642,5.868,1.316,5.055-2.021C58.563,167.595,55.772,167.163,55.611,169.36z M48.533,176.944c0-2.358,0-4.719,0-7.078
			c-1.48,0.133-1.553-1.143-3.033-1.01C44.796,171.382,47.184,174.823,48.533,176.944z M54.6,187.056
			c-0.103-4.146-0.01-8.099,0.505-11.628c-1.204-1.155-2.898-1.82-4.55-2.527C49.542,179.016,51.125,184.084,54.6,187.056z
			 M61.678,194.64c-0.319-4.39-0.962-14.449,0-18.706c-0.958-0.897-3.34-0.368-5.056-0.506
			C56.238,183.004,55.502,195.541,61.678,194.64z M51.566,231.039c0.886,0.139,2.523-1.424,3.034,0
			c-2.275,5.759-0.651,12.719-2.022,19.717c-0.498-5.698-0.064-11.107-1.011-17.189c-1.221,3.618-3.01-4.066-5.561-4.044
			c1.285,5.797-0.968,6.433-2.022,10.617c1.396,1.877,3.302,0.506,5.056,0c2.688,9.245,3.463,25.331,3.033,34.377
			c1.575-0.279,3.295-0.413,4.55-1.011c-0.477-22.949-0.29-48.265-1.011-72.801c-1.526-1.844-2.334-4.406-4.55-5.562
			C50.828,207.944,51.607,217.797,51.566,231.039z M51.566,280.077c-1.657-0.027-1.933-1.438-4.044-1.011
			c-0.107,3.646,2.955,4.123,4.549,6.067c-1.099,1.092-4.555-0.173-5.055,1.517c2.219,3.85,11.938,2.888,11.122,8.089
			c-1.624-1.624-5.395-4.609-8.089-2.022c-1.05,2.745,2.193,3.657,2.022,5.056c-0.117,0.956-2.052-0.021-1.517,1.517
			c1.201,3.442,4.757,5.129,8.089,4.044c11.598-3.774-11.366-22.656-2.528-25.783c0.797,0.046,0.396,1.289,1.517,1.012
			C59.168,273.159,50.921,276.15,51.566,280.077z M61.678,280.583c-1.175-0.222-1.354-2.232-2.528-1.011
			c-2.347,2.514,2.588,7.646,0,7.078c0.113,2.92,2.843,3.223,4.55,4.55c-3.207,1.713,1.433,6.373,0,11.122
			c13.592-4.151-5.987-18.125,3.033-23.256c-0.508,1.688,0.702,1.658,2.022,1.517C69.504,274.478,61.792,277.438,61.678,280.583z
			 M57.128,284.122c0.191-1.876,0.077-3.447-1.517-3.539C55.372,282.508,55.826,283.739,57.128,284.122z M41.456,285.134
			c0.623,1.567,1.113,3.269,3.033,3.538c0.532-2.217-1.71-1.66-1.517-3.538c1.979,0.293,2.936-0.436,4.044-1.012
			C46.779,278.968,42.711,283.854,41.456,285.134z M70.272,292.211c1.015,5.432-0.991,9.247-4.045,12.639
			c-2.658,1.64-6.636,2.618-9.605,2.528c14.236,9.637,24.227-21.311,9.1-25.278C64.996,285.945,69.579,288.504,70.272,292.211z
			 M39.939,293.728c-3.443-2.649-9.111,3.019-4.044,4.045c2-0.227-0.61-2.176,1.517-2.528c8.655,0.782,6.67,12.204,16.178,12.134
			c0.204-0.976,2.315-0.044,1.517-2.021c-3.172-1.043-5.206-3.221-6.572-6.067c0.065,0.908-0.502,1.183-1.517,1.011
			c-1.618-3.257,1.594-8.562-1.011-11.122c-1.14,0.716-0.994,2.714-2.528,3.033c-0.342-2.858-1.879-4.523-4.044-5.561
			C37.669,288.808,40.099,293.227,39.939,293.728z M48.028,296.762c1.947,0.397,1.947-2.421,0-2.022
			C48.028,295.413,48.028,296.087,48.028,296.762z M38.422,298.783c1.548,21.823,15.966,33.663,22.75,50.05
			c1.598,3.859,4.788,9.532,1.011,14.156c-0.808-2.812,1.137-8.963-2.022-10.617c0.617,18.366,0.664,38.746,1.517,58.14
			c0.967,22.023-3.247,43.187,5.055,55.104c-1.119-33.377-1.62-59.408-1.517-94.033c2.772-4.356,3.713-9.87,2.528-15.672
			c-3.147-15.399-17.123-27.964-22.75-41.961c-2.132-5.303-1.357-11.387-5.055-16.684c-0.506,0-1.011,0-1.517,0
			C38.422,297.772,38.422,298.277,38.422,298.783z M58.139,305.356c1.553,0.707,3.615,0.26,4.044-1.518
			C60.916,302.825,58.854,304.252,58.139,305.356z M51.061,320.522c0-3.707,0-7.415,0-11.122c-2.971-0.736-4.93-2.485-6.572-4.551
			C45.896,310.856,47.416,316.752,51.061,320.522z M53.083,308.895c-1.2,7.466-1.162,18.77,4.55,22.245
			c0.069-6.975-0.672-13.913-0.505-21.234C56.019,309.329,55.062,308.601,53.083,308.895z M59.15,310.917
			c0.861,10.43-2.754,25.335,4.55,29.322c0.376-8.251-0.256-19.54,0-29.322C62.183,310.917,60.667,310.917,59.15,310.917z
			 M54.094,374.616c0.76,1.422,2.129-1.283,2.528,0c-0.871,6.689,0.15,16.898-1.011,21.74c-0.519-6.111-0.861-13.747-1.011-18.706
			c0.027,0.869-0.389,1.296-1.011,1.517c-1.315-3.066-2.061-6.703-5.561-7.584c-0.395,3.935,0.339,6.739,1.517,9.101
			c-2.135-0.45-2.855,0.515-3.539,1.517c-0.175,2.028,1.254,2.452,2.022,3.539c2.432,0.746,0.465-2.905,2.527-2.528
			c4.092,6.525,2.299,18.935,6.067,25.783c0.46,2.482-2.119,1.926-2.022,4.045c2.546,20.309-0.129,38.18-16.178,39.938
			c-8.569,0.938-14.571-3.041-15.672-9.605c-2.559-15.256,18.503-18.103,17.695-2.527c-1.385,1.985-3.302,3.439-7.079,3.033
			c-1.564-0.854-2.555-5.041,0.506-5.056c-0.829,1.642-0.273,3.206,2.022,3.034c1.601-0.759,2.466-2.254,2.528-4.551
			c-1.292-1.002-2.325,0.524-3.034-0.506c0.449-0.899,1.412-1.285,1.011-3.033c-1.047-1.634-4.013-2.015-5.561-0.505
			c-1.019,1.824,0.05,2.447,0.505,4.044c-1.789-0.272-2.215,0.818-3.033,1.517c-0.466,4.847,1.301,7.462,6.067,7.078
			c-0.74,1.113-1.537,2.171-1.517,4.044c2.964,0.269,3.979-1.413,5.561-2.527c0.373,1.816,1.002,3.379,3.539,3.033
			c1.482-0.726,2.419-2.297,1.517-4.045c-2.172-1.544-0.887,1.842-2.527,0.506c-1.272-2.561,1.77-4.559,2.022-7.584
			c0.361-4.33-2.374-7.079-3.033-9.604c4.099,2.304,3.014,9.793,7.078,12.134c0.866-1.725-0.111-4.17,0.506-5.057
			c1.54,0.819,2.18,2.538,4.044,3.033c0.854-2.564-2.417-3.616-1.517-4.55c1.952,0.099,2.905-0.803,3.034-2.527
			c0.568-2.519-2.549-3.148-4.044-2.022c-0.375,1.722,1.863,0.833,2.022,2.022c-5.923,3.162-8.142-3.136-12.639-5.056
			c-1.194-0.51-3.1,0.466-4.044-1.517c3.602,0.063,7.287,0.21,8.594-2.022c-8.499,1.837-16.739,2.116-20.728,7.583
			c-7.141,9.789,0.711,22.947,11.122,24.268c16.532,2.095,25.139-10.119,23.762-28.817c-0.685,20.062-2.648,47.709,18.706,51.062
			c12.528,1.967,25.849-4.309,24.267-15.673c-1.498,0.861-2.164,2.557-2.528,4.55c-4.429,4.537-10.027,8.271-16.683,8.09
			c-19.442-0.532-20.221-19.183-21.233-41.456c-1.376-30.293,0.132-63.375-1.517-88.472c-1.511-1.186-2.146-3.247-3.033-5.056
			c-0.646-0.028-0.7-0.648-1.517-0.506C53.583,351.086,54.819,365.001,54.094,374.616z M41.456,422.645
			c0.316-1.224-0.651-4.909-1.517-6.572c0.677-1.851,3.275-1.78,3.539-4.045c-2.769-0.85,1.336-6.229-4.044-6.066
			C44.3,410.815,30.711,420.562,41.456,422.645z M48.533,411.522c-0.81-0.875-1.53-1.84-3.539-1.517
			c-1.202,4.618,7.933,5.688,3.034,9.101c0.05-2.242-0.599-3.784-2.528-4.045c-9.089,4.649,4.927,12.557,7.078,4.045
			c0.482-5.143-3.75-10.385,1.011-12.64C49.153,405.4,49.57,409.188,48.533,411.522z M52.578,409.5
			c0.587,0.424,1.355,0.667,2.528,0.506c0.234-1.584-0.439-2.257-2.022-2.022C53.105,408.68,52.846,409.093,52.578,409.5z
			 M45.5,425.172c2.918,1.782,8.075,0.022,7.078-3.032C51.362,424.293,48.018,424.319,45.5,425.172z M46.006,428.711
			c-1.152-0.141-1.901,0.122-2.022,1.012c1.791-0.274,1.243,1.79,3.033,1.517c0.779-1.75,3.953-3.229,6.067-2.022
			c0-1.012,0-2.022,0-3.033c-2.286,1.94-8.037,0.42-9.606,0.505C44.203,427.48,46.113,427.087,46.006,428.711z M86.45,436.8
			c-1.193-0.997-3.384-0.997-5.056-1.517c-0.55,3.542,5.476,2.774,4.044,5.562c2.517,0.327,2.15,0.246,4.044-0.506
			c0.576,1.183,3.151,3.768,4.044,1.518c-2.705-1.252-6.134-4.206-4.55-8.09c0.894,0.444,1.476,1.603,2.528,0.506
			c0.365-1.545-0.518-1.843-0.506-3.033C86.208,429.999,86.551,434.808,86.45,436.8z M30.839,448.934
			c-0.108-2.591-4.595-3.94-4.55-8.089c0.024-2.292,1.406-3.23,2.528-5.562c-0.277-0.734,0.59-2.613-0.506-2.527
			C21.584,435.52,24.639,451.366,30.839,448.934z M77.35,442.866c-0.735-0.781-2.588-0.445-4.045-0.506
			c-0.808,1.099-2.533,3.729,0,4.045c0.79-0.896,0.677-2.693,3.034-2.022c4.418,3.42-2.733,10.432,1.011,14.662
			c0.686-6.056,4.505-8.978,6.572-13.65c-1.667-0.446-2.526,2.476-3.539,1.011c1.206-2.118,1.75-7.212-1.011-8.089
			C78.78,439.916,78.448,441.774,77.35,442.866z M46.006,448.428c2.09-1.785,4.169-3.582,5.055-6.571
			c-0.748-0.264-1.274-0.749-2.022-1.012c-0.803,2.062-1.539,4.19-3.033,5.561c-0.74-1.451-0.685-3.696-2.022-4.549
			C41.558,444.887,45.756,445.32,46.006,448.428z M93.528,447.922c-0.928-1.769-1.776-3.615-4.044-4.044
			c-2.671,5.149,4.045,10.898,0,14.155c0.485-14.571-14.857-2.424-8.595,5.562c14.836,5.888,8.7-19.688,21.739-17.189
			c-0.313,1.204-2.203,0.831-1.517,3.033c7.48,1.905,2.681-10.121-3.034-5.056c0.067-1.246,0.077-2.436-0.506-3.033
			C93.887,441.204,94.746,445.602,93.528,447.922z M86.956,445.395c1.17-0.38,1.766-3.932-0.505-3.538
			C86.845,443.104,84.613,445.354,86.956,445.395z M72.294,458.033c1.584,4.738,14.36,9.129,8.089,13.145
			c-0.553-1.29,1.727-2.602-0.505-2.527c-1.722-0.037-1.883,1.486-2.528,2.527c0.994,2.508,5.311,3.353,7.078,1.011
			c0.739-9.489-15.937-11.344-8.089-24.771c-0.107-0.567-0.561-0.788-1.011-1.012C71.688,449.061,70.87,453.773,72.294,458.033z
			 M84.428,448.934c1.011,0,2.022,0,3.033,0C87.805,446.208,84.25,446.54,84.428,448.934z M97.066,448.934
			c0.32,2.208,1.517,3.539,2.022,5.561c1.613,0.434,1.563-0.796,2.527-1.011c-0.466-2.398-1.533-4.196-3.539-5.056
			C97.966,448.821,97.655,449.016,97.066,448.934z M47.017,455.506c1.588,3.804,5.521,5.264,9.605,6.571
			c-1.107-3.779-0.985-8.787-2.528-12.133C51.87,451.933,50.083,454.358,47.017,455.506z M85.945,466.628
			c7.336,2.079,11.487-9.766,18.705-4.551c-0.593,1.25-2.101-1.227-2.022,1.012c0.07,1.446,2.108,0.925,3.539,1.011
			c0.162-1.187,0.799-1.897,0.506-3.538c-1.108-1.482-2.992-1.065-4.044-1.517c0.155-1.53,1.564-1.807,1.011-4.045
			c-2.343,0.521-3.938,1.792-5.561,3.033c-0.048-1.974-0.365-3.68-2.022-4.044C93.377,458.894,92.617,465.717,85.945,466.628z
			 M55.105,463.089c-2.899-0.847-5.309-2.011-8.089-0.506c0.67-0.847,1.339-1.693,1.011-3.538c-0.818-0.868-2.115-1.256-4.044-1.012
			c-0.245,1.593,1.552,1.145,1.011,3.033c-3.748,5.667-17.097,6.632-14.155,15.673c4.216-1.953,6.749-7.624,13.145-7.584
			c3.111,0.021,5.948,1.319,8.088,4.045c0.797,2.573,2.395,4.346,4.044,6.066c0-0.674,0-1.349,0-2.022
			c1.166,1.216,1.631,0.771,3.54,0.506c1.61-2.491,0.979-6.024-3.034-5.562c-1.087,2.147,2.109,2.546,1.011,3.034
			c-2.758-0.041-1.443-2.093-2.528-3.539c-3.982-5.311-11.813-6.596-18.706-3.033C40.456,463.561,51.235,468.313,55.105,463.089z
			 M43.983,460.562c0.152-1.332-0.7-1.659-2.022-1.517C41.548,460.854,43.037,461.554,43.983,460.562z M52.578,467.133
			c2.521,1.523,3.796,4.293,8.089,4.045c-0.745-2.626-1.889-4.852-3.539-6.571C56.141,465.978,53.474,465.671,52.578,467.133z
			 M86.45,468.65c-0.061,1.456,0.276,3.309-0.505,4.044c5.336-0.899,8.497-3.973,10.616-8.088
			C92.929,465.692,91.558,469.039,86.45,468.65z M29.828,478.256c-1.171-0.852-1.24-2.805-2.528-3.539
			c-2.312,3.977,2.58,4.727,4.55,6.066c-0.899,0.955-1.666,2.042-1.517,4.044c7.638-0.787,7.287-9.564,13.144-12.133
			C36.306,471.926,37.584,479.608,29.828,478.256z M55.611,492.917c5.471-3.797,8.841-9.695,10.616-17.189
			c-1.517-0.504-2.104-1.94-3.539-2.527C62.728,481.672,53.899,486.075,55.611,492.917z M50.555,475.223
			c-11.434-4.577-12.472,9.228-16.683,15.167c-1.582-0.104-3.711,0.341-4.55-0.507c0.537,3.156,2.977,3.566,6.067,2.528
			c-0.021,1.537-0.294,3.327,1.517,3.033c2.235-0.293,0.835-4.22,2.022-5.562c0.734,0.782,2.587,0.446,4.044,0.507
			c-0.889-3.604-4.026-9.545,0.505-11.628c-1.69,4.26-1.139,9.981,4.55,8.088c0.475-1.884,2.086-2.631,1.517-5.561
			c0.956-0.114,1.116,0.569,2.022,0.506C52.372,478.851,51.327,477.692,50.555,475.223z M44.994,488.872c0,1.011,0,2.022,0,3.033
			c3.624,1.081,4.413-3.32,6.067-2.527c-1.206,2.24-2.595,3.762-1.517,7.077c2.172,1.475,1.288-1.85,3.539-2.021
			c0.76-0.059,4.896,5.146,5.561,0c-9.134,1.929-2.663-11.616-5.056-14.661C52.51,484.592,49.955,487.935,44.994,488.872z
			 M56.116,484.827c0.856-1.186,3.112-3.603,2.022-5.055C57.324,480.999,55.23,483.579,56.116,484.827z M28.817,483.816
			c0.424-0.587,0.667-1.355,0.505-2.527C27.464,480.802,27.313,483.772,28.817,483.816z M31.85,488.872
			c1.969,0.02,3.321-2.378,2.528-3.539C32.466,485.371,30.672,487.325,31.85,488.872z M39.433,496.455
			c2.888-0.206,6.134,1.407,8.595,0c-0.366-1.149-0.451-2.582-1.011-3.538c-3.038,0.509-4.313-0.742-6.572-1.012
			C40.065,493.345,38.598,495.367,39.433,496.455z"/>
	</g>
</g>
</svg>
